# xmcd
#
# Track frame offsets:
#	150
#	33374
#	53279
#	82254
#	113485
#	137892
#	165131
#	202014
#	224126
#	240001
#	275137
#	301738
#	320990
#
# Disc length: 4438 seconds
#
# Revision: 1
# Processed by: cddbd v1.4PL0 Copyright (c) Steve Scherf et al.
# Submitted via: audiograbber 1.82.01
#
DISCID=b311540d
DTITLE=Varius Artist - Past and present
DYEAR=2003
DGENRE=House
TTITLE0=Solomonic Sound - Remember Garnett
TTITLE1=Joeski - Sheila's Temptation
TTITLE2=Moulton Manglers - Rising
TTITLE3=Lewis Twins - Twilte
TTITLE4=Ethnic Souls - Drop Bass
TTITLE5=Three Tango - Primitive
TTITLE6=6400 Crew - Down in a Land
TTITLE7=Joeski - Techism
TTITLE8=Ethnic Souls - Feel Alrite
TTITLE9=Chris Lum - Big Tool
TTITLE10=Electrik Soul Brothers - 6400 Crew Theme
TTITLE11=Joeski - Groove Me
TTITLE12=Moulton Manglers - Stop
EXTD=
EXTT0=
EXTT1=
EXTT2=
EXTT3=
EXTT4=
EXTT5=
EXTT6=
EXTT7=
EXTT8=
EXTT9=
EXTT10=
EXTT11=
EXTT12=
PLAYORDER=
